# xmcd
#
# Track frame offsets: 
#        150
#        18359
#        34495
#        56138
#        72570
#        88078
#        107795
#        118057
#        148775
#        164701
#
# Disc length: 2700 seconds
#
# Revision: 0
# Processed by: cddbd v1.5.2PL0 Copyright (c) Steve Scherf et al.
# Submitted via: ExactAudioCopy v1.0b3
#
DISCID=9b0a8a0a
DTITLE=Всё равно - Русский рок
DYEAR=2011
DGENRE=Punk Rock
TTITLE0=Рок-н-ролл
TTITLE1=Большой брат
TTITLE2=Понедельник. Утро
TTITLE3=Мы идём (Here We Go)
TTITLE4=Зомби. Триллер
TTITLE5=i Man (Информациоман)
TTITLE6=Ничего
TTITLE7=Дуэт
TTITLE8=Соной (Со[нм]ой)
TTITLE9=Frozen (Madonna cover) [hidden]
EXTD=
EXTT0=
EXTT1=
EXTT2=
EXTT3=
EXTT4=
EXTT5=
EXTT6=
EXTT7=
EXTT8=
EXTT9=
PLAYORDER=
